<svg xmlns="http://www.w3.org/2000/svg" version="1.1" xmlns:xlink="http://www.w3.org/1999/xlink" xmlns:svgjs="http://svgjs.dev/svgjs" width="2000" height="2000" viewBox="0 0 2000 2000"><g transform="matrix(1,0,0,1,0,0)"><svg viewBox="0 0 280 280" data-background-color="#ffffff" preserveAspectRatio="xMidYMid meet" height="2000" width="2000" xmlns="http://www.w3.org/2000/svg" xmlns:xlink="http://www.w3.org/1999/xlink"><g id="tight-bounds" transform="matrix(1,0,0,1,0,0)"><svg viewBox="0 0 280 280" height="280" width="280"><g><svg viewBox="0 0 280 280" height="280" width="280"><g><svg viewBox="0 0 280 280" height="280" width="280"><g id="textblocktransform"><svg viewBox="0 0 280 280" height="280" width="280" id="textblock"><g><svg viewBox="0 0 280 280" height="280" width="280"><g transform="matrix(1,0,0,1,50.244579241387555,79.95225823684663)"><svg viewBox="0 0 179.5108415172249 120.09548352630672" height="120.09548352630672" width="179.5108415172249"><g id="icon-0"><svg xmlns="http://www.w3.org/2000/svg" xmlns:xlink="http://www.w3.org/1999/xlink" version="1.1" x="0" y="0" viewBox="2.2158676543209874 18.273574619764197 96.18413234567902 64.34864760245804" enable-background="new 0 0 100 100" xml:space="preserve" height="120.09548352630672" width="179.5108415172249" class="icon-jxe-0" data-fill-palette-color="accent" id="jxe-0"><path d="M61.2 54.9C51 58.1 51.3 68.9 51.3 68.9S57.7 64.5 66.4 62.9C77.8 60.8 82 62.8 82 62.8S78.8 62.4 65.2 65.1C57.7 66.6 51.3 71.8 49.1 74.1 49.2 72.7 49.2 71.4 49.1 70.4 48.8 67.3 45.7 55.1 37.6 47 24.2 33.7 20.3 31.7 20.3 31.7S26.5 32.5 37.9 43.5C46.6 51.9 50.4 61.7 50.4 61.7S58.8 49.7 49.8 38.4C32.2 16.7 2.3 18.3 2.3 18.3S0.1 40 18.2 56.6C28.7 66.2 40.3 65.7 45.1 64.9 45.7 66.2 46.2 67.8 46.7 69.6 48.1 74.7 43.6 78.2 43.6 78.2S41.2 79.5 45.3 82C47.5 83.4 48 82 48 82S48.3 80.2 48.6 77.9C48.7 76.9 49.2 75.9 50 75.2 50.1 75.1 50.2 75.1 50.2 75 51.2 74.1 52.2 73.4 53.1 72.8 55.7 75.2 62.6 80.3 73 78.7 90.9 76 98.4 61.7 98.4 61.7S80.8 48.7 61.2 54.9" fill="#009640" data-fill-palette-color="accent"></path></svg></g></svg></g><g id="text-0"><path d="M22.195 106.197l-0.581 1.885-17.144-5.286 3.244-10.521 1.609 0.496-2.663 8.636zM16.654 96.263l-2.489 8.074-1.599-0.493 2.49-8.074z" fill="#454545" data-fill-palette-color="primary"></path><path d="M29.233 88.644v0c-0.624 1.358-1.457 2.411-2.498 3.16-1.041 0.749-2.308 1.122-3.799 1.118-1.488 0.006-3.214-0.443-5.179-1.345v0c-1.958-0.9-3.423-1.918-4.393-3.054-0.967-1.127-1.508-2.334-1.621-3.621-0.11-1.278 0.146-2.593 0.767-3.944v0c0.621-1.351 1.452-2.402 2.493-3.151 1.048-0.746 2.315-1.122 3.804-1.128 1.491 0.003 3.216 0.455 5.174 1.356v0c1.965 0.903 3.43 1.918 4.398 3.044 0.971 1.136 1.511 2.343 1.621 3.621 0.107 1.284-0.149 2.599-0.767 3.944zM27.703 87.941v0c0.454-0.989 0.632-1.953 0.534-2.892-0.099-0.94-0.549-1.84-1.35-2.701-0.808-0.864-2.041-1.677-3.699-2.439v0c-1.695-0.779-3.14-1.197-4.335-1.253-1.194-0.056-2.18 0.184-2.957 0.721-0.784 0.534-1.402 1.295-1.857 2.284v0c-0.454 0.989-0.632 1.953-0.533 2.892 0.092 0.937 0.539 1.835 1.341 2.696 0.805 0.87 2.04 1.688 3.704 2.453v0c1.708 0.785 3.157 1.201 4.348 1.248 1.188 0.053 2.174-0.187 2.957-0.721 0.777-0.537 1.393-1.3 1.847-2.288z" fill="#454545" data-fill-palette-color="primary"></path><path d="M35.421 76.601l-1.052 1.632-14.835-9.565c0.175-0.436 0.367-0.886 0.576-1.349 0.211-0.454 0.447-0.928 0.708-1.424 0.268-0.491 0.569-0.997 0.905-1.518v0c1.28-1.985 2.595-3.23 3.945-3.736 1.35-0.506 2.792-0.264 4.326 0.725v0c1.007 0.649 1.693 1.428 2.058 2.335 0.365 0.907 0.424 1.928 0.176 3.062-0.252 1.14-0.812 2.385-1.682 3.733v0c-0.269 0.417-0.514 0.779-0.737 1.086-0.223 0.307-0.458 0.622-0.707 0.945v0zM41.511 67.157l-1.215 1.884-10.523 0.748 1.193-1.849zM29.224 69.631v0c1.041-1.615 1.536-2.954 1.485-4.019-0.056-1.069-0.629-1.954-1.716-2.655v0c-0.752-0.485-1.455-0.729-2.109-0.733-0.655-0.013-1.292 0.224-1.908 0.711-0.613 0.481-1.237 1.214-1.872 2.198v0c-0.328 0.509-0.595 0.968-0.801 1.376-0.212 0.404-0.408 0.823-0.588 1.255v0l6.05 3.901c0.201-0.248 0.374-0.472 0.52-0.673 0.155-0.203 0.305-0.41 0.449-0.62 0.148-0.216 0.311-0.463 0.49-0.741z" fill="#454545" data-fill-palette-color="primary"></path><path d="M51.144 55.827l-7.246 8.576-13.704-11.578 7.172-8.489 1.263 1.066-5.913 6.998 11.172 9.439 5.985-7.085zM43.905 51.415l-5.605 6.635-1.271-1.073 5.606-6.635z" fill="#454545" data-fill-palette-color="primary"></path><path d="M56.799 50.921v0c-0.521 0.482-1.104 0.941-1.75 1.379-0.65 0.433-1.313 0.797-1.986 1.092v0l-1.151-1.243c0.481-0.22 0.946-0.463 1.395-0.728 0.454-0.27 0.879-0.55 1.276-0.842 0.401-0.296 0.769-0.599 1.102-0.907v0c1.092-1.01 1.709-1.96 1.851-2.851 0.137-0.896-0.159-1.738-0.888-2.527v0c-0.622-0.672-1.294-1.003-2.015-0.992-0.717 0.016-1.667 0.337-2.852 0.963v0l-0.881 0.477c-1.384 0.745-2.622 1.089-3.716 1.032-1.094-0.067-2.078-0.573-2.952-1.518v0c-1.052-1.137-1.485-2.392-1.301-3.764 0.185-1.381 1.057-2.792 2.614-4.232v0c0.505-0.468 1.041-0.897 1.607-1.29 0.561-0.397 1.107-0.719 1.638-0.966v0l1.15 1.243c-0.581 0.275-1.142 0.601-1.683 0.98-0.546 0.373-1.061 0.785-1.546 1.233v0c-0.753 0.697-1.283 1.361-1.591 1.992-0.312 0.626-0.423 1.221-0.332 1.785 0.095 0.569 0.369 1.099 0.822 1.589v0c0.598 0.647 1.243 0.979 1.935 0.996 0.696 0.022 1.599-0.259 2.708-0.845v0l0.881-0.491c0.995-0.536 1.906-0.886 2.731-1.049 0.82-0.158 1.574-0.124 2.261 0.103 0.688 0.236 1.324 0.67 1.908 1.302v0c0.739 0.799 1.178 1.644 1.32 2.537 0.145 0.897 0.005 1.815-0.422 2.753-0.431 0.943-1.143 1.873-2.133 2.789z" fill="#454545" data-fill-palette-color="primary"></path><path d="M68.907 40.883l-1.589 1.151-9.524-13.149-4.843 3.508-1-1.38 11.275-8.167 1 1.38-4.843 3.508z" fill="#454545" data-fill-palette-color="primary"></path><path d="M89.736 29.121v0c-1.116 0.539-2.194 0.879-3.235 1.022-1.043 0.136-2.039 0.036-2.989-0.301-0.953-0.343-1.857-0.958-2.713-1.845-0.85-0.89-1.638-2.088-2.365-3.595v0c-0.942-1.953-1.408-3.686-1.396-5.198 0.006-1.509 0.428-2.821 1.266-3.936 0.838-1.115 2.042-2.051 3.611-2.809v0c0.626-0.302 1.244-0.551 1.853-0.745 0.609-0.195 1.231-0.349 1.864-0.463v0l0.745 1.544c-0.648 0.099-1.271 0.25-1.868 0.454-0.6 0.198-1.195 0.439-1.784 0.723v0c-1.228 0.592-2.159 1.309-2.793 2.15-0.643 0.838-0.946 1.859-0.907 3.064 0.042 1.195 0.46 2.618 1.256 4.268v0c0.823 1.705 1.695 2.943 2.618 3.714 0.916 0.774 1.893 1.166 2.93 1.178 1.031 0.015 2.13-0.259 3.296-0.822v0c0.595-0.287 1.153-0.614 1.673-0.979 0.51-0.369 1.034-0.812 1.57-1.331v0l0.745 1.544c-0.45 0.446-0.956 0.87-1.519 1.272-0.563 0.402-1.183 0.766-1.858 1.091z" fill="#454545" data-fill-palette-color="primary"></path><path d="M96.835 25.965l-1.867 0.607 0.574-19.051 2.643-0.859 11.674 15.07-1.905 0.619-10.975-14.32 0.314-0.102zM104.843 17.259l-8.467 2.751-0.072-1.725 7.583-2.464z" fill="#454545" data-fill-palette-color="primary"></path><path d="M115.043 20.721l-1.909 0.354-3.218-17.356c0.437-0.172 0.896-0.341 1.377-0.507 0.475-0.158 0.982-0.312 1.521-0.461 0.541-0.142 1.116-0.27 1.726-0.383v0c2.322-0.431 4.13-0.328 5.424 0.308 1.294 0.635 2.108 1.85 2.441 3.644v0c0.218 1.178 0.123 2.211-0.287 3.099-0.41 0.888-1.112 1.631-2.108 2.229-1.002 0.599-2.292 1.045-3.869 1.338v0c-0.487 0.09-0.919 0.16-1.296 0.208-0.376 0.049-0.767 0.093-1.172 0.134v0zM126.092 18.672l-2.203 0.409-7.764-7.143 2.163-0.401zM115.863 11.43v0c1.889-0.35 3.203-0.909 3.943-1.677 0.739-0.774 0.99-1.798 0.754-3.07v0c-0.163-0.88-0.468-1.559-0.913-2.037-0.44-0.486-1.049-0.786-1.827-0.901-0.771-0.116-1.732-0.068-2.882 0.146v0c-0.596 0.11-1.113 0.231-1.551 0.361-0.439 0.123-0.878 0.268-1.317 0.434v0l1.313 7.078c0.318-0.024 0.6-0.052 0.845-0.084 0.254-0.026 0.507-0.059 0.759-0.098 0.259-0.041 0.55-0.092 0.876-0.152z" fill="#454545" data-fill-palette-color="primary"></path><path d="M140.944 17.907l-11.21 0.612-0.978-17.913 11.097-0.606 0.09 1.65-9.148 0.499 0.797 14.604 9.262-0.506zM139.188 9.615l-8.673 0.473-0.091-1.66 8.674-0.474z" fill="#454545" data-fill-palette-color="primary"></path><path d="M159.466 19.901v0c-1.229-0.164-2.316-0.472-3.263-0.924-0.946-0.459-1.723-1.091-2.332-1.895-0.608-0.81-1.025-1.821-1.253-3.032-0.221-1.21-0.221-2.645 0-4.303v0c0.286-2.15 0.85-3.853 1.692-5.11 0.834-1.257 1.908-2.122 3.221-2.593 1.313-0.471 2.833-0.592 4.56-0.361v0c0.689 0.092 1.342 0.224 1.958 0.396 0.616 0.172 1.22 0.385 1.811 0.637v0l-0.226 1.7c-0.596-0.274-1.199-0.49-1.81-0.648-0.61-0.165-1.24-0.29-1.888-0.376v0c-1.351-0.18-2.523-0.093-3.515 0.261-0.998 0.346-1.812 1.033-2.442 2.061-0.622 1.022-1.054 2.44-1.296 4.256v0c-0.25 1.877-0.202 3.391 0.145 4.541 0.34 1.15 0.94 2.015 1.801 2.595 0.854 0.579 1.922 0.954 3.206 1.125v0c0.655 0.087 1.3 0.121 1.935 0.101 0.629-0.027 1.31-0.11 2.044-0.249v0l-0.227 1.7c-0.621 0.126-1.277 0.202-1.968 0.227-0.691 0.026-1.409-0.01-2.153-0.109z" fill="#454545" data-fill-palette-color="primary"></path><path d="M172.978 22.976v0c-1.443-0.387-2.621-1.031-3.535-1.932-0.913-0.901-1.493-2.087-1.74-3.558-0.256-1.466-0.103-3.243 0.457-5.331v0c0.558-2.082 1.316-3.696 2.272-4.844 0.948-1.143 2.047-1.878 3.297-2.206 1.242-0.323 2.58-0.292 4.017 0.094v0c1.436 0.385 2.611 1.028 3.525 1.929 0.911 0.908 1.495 2.094 1.75 3.56 0.247 1.471 0.091 3.247-0.467 5.329v0c-0.56 2.088-1.314 3.704-2.262 4.846-0.957 1.148-2.056 1.883-3.297 2.206-1.248 0.321-2.587 0.29-4.017-0.093zM173.414 21.349v0c1.051 0.282 2.031 0.295 2.94 0.041 0.91-0.255 1.722-0.85 2.436-1.785 0.716-0.941 1.31-2.293 1.783-4.056v0c0.483-1.802 0.653-3.297 0.508-4.483-0.145-1.187-0.547-2.118-1.207-2.794-0.658-0.683-1.513-1.165-2.564-1.447v0c-1.051-0.282-2.031-0.295-2.94-0.04-0.908 0.248-1.719 0.84-2.433 1.774-0.723 0.94-1.321 2.294-1.796 4.063v0c-0.487 1.816-0.654 3.314-0.5 4.496 0.147 1.18 0.549 2.111 1.207 2.795 0.66 0.676 1.515 1.155 2.566 1.436z" fill="#454545" data-fill-palette-color="primary"></path><path d="M185.731 27.054l-1.697-0.757 7.308-16.385 2.142 0.956 0.251 15.357-0.387-0.173 11.511-10.11 2.141 0.955-7.309 16.384-1.697-0.757 6.614-14.828 0.509 0.227-11.429 9.955-1.623-0.724-0.294-15.184 0.575 0.256z" fill="#454545" data-fill-palette-color="primary"></path><path d="M205.236 36.991l-1.537-1.046 10.098-14.829 1.938 1.32-2.475 15.159-0.35-0.239 13.121-7.909 1.938 1.32-10.098 14.828-1.537-1.046 9.139-13.42 0.461 0.314-13.014 7.77-1.468-1 2.402-14.996 0.521 0.354z" fill="#454545" data-fill-palette-color="primary"></path><path d="M225.99 53.635v0c-1.101-1.05-1.835-2.092-2.2-3.126-0.361-1.039-0.354-2.098 0.019-3.178 0.374-1.08 1.112-2.199 2.214-3.355v0l7.698-8.073 1.42 1.355-7.847 8.229c-1.221 1.281-1.838 2.476-1.851 3.587-0.017 1.116 0.555 2.227 1.716 3.335v0c1.176 1.121 2.321 1.647 3.434 1.576 1.104-0.07 2.266-0.745 3.488-2.026v0l7.848-8.229 1.382 1.318-7.698 8.073c-1.102 1.156-2.179 1.951-3.23 2.385-1.056 0.429-2.109 0.491-3.159 0.185-1.05-0.316-2.128-1.001-3.234-2.056z" fill="#454545" data-fill-palette-color="primary"></path><path d="M235.103 63.292l-1.147-1.476 14.165-11.009 1.243 1.598-6.057 17.774-0.291-0.375 12.388-9.627 1.134 1.46-14.166 11.009-1.242-1.599 6.063-17.766 0.298 0.384z" fill="#454545" data-fill-palette-color="primary"></path><path d="M246.102 78.811l-1.039-1.677 15.254-9.444 1.038 1.677z" fill="#454545" data-fill-palette-color="primary"></path><path d="M251.163 88.902l-0.849-1.769 14.639-7.023-2.587-5.392 1.537-0.737 6.022 12.553-1.536 0.737-2.587-5.392z" fill="#454545" data-fill-palette-color="primary"></path><path d="M256.703 103.009l-0.624-1.883 8.353-2.768-1.275 0.879 7.901-9.941 0.682 2.058-6.497 8.171-0.211-0.637 10.068 2.604 0.641 1.931-12.237-3.137 1.532-0.039z" fill="#454545" data-fill-palette-color="primary"></path><path d="M2.917 141.75c0-3.835 3.109-6.943 6.943-6.943 3.835 0 6.943 3.109 6.943 6.943 0 3.835-3.109 6.943-6.943 6.943-3.835 0-6.943-3.109-6.943-6.943z" fill="#454545" data-fill-palette-color="primary"></path><path d="M263.197 141.75c0-3.835 3.109-6.943 6.943-6.943 3.835 0 6.943 3.109 6.943 6.943 0 3.835-3.109 6.943-6.943 6.943-3.835 0-6.943-3.109-6.943-6.943z" fill="#454545" data-fill-palette-color="primary"></path></g><g id="text-1"><path d="M8.407 181.555l-0.581-1.885 17.144-5.286 3.244 10.521-1.609 0.496-2.663-8.636zM18.579 186.644l-2.489-8.074 1.599-0.493 2.489 8.074z" fill="#454545" data-fill-palette-color="secondary"></path><path d="M15.71 201.072v0c-0.624-1.358-0.881-2.675-0.771-3.954 0.11-1.278 0.651-2.482 1.625-3.611 0.965-1.133 2.429-2.151 4.393-3.054v0c1.958-0.9 3.684-1.349 5.179-1.346 1.485-0.001 2.753 0.375 3.804 1.128 1.041 0.749 1.873 1.799 2.493 3.151v0c0.621 1.351 0.877 2.666 0.767 3.944-0.116 1.281-0.656 2.488-1.621 3.621-0.974 1.13-2.44 2.144-4.398 3.044v0c-1.965 0.903-3.689 1.355-5.174 1.355-1.494-0.003-2.762-0.379-3.803-1.128-1.044-0.755-1.876-1.805-2.494-3.15zM17.24 200.369v0c0.454 0.989 1.07 1.751 1.847 2.288 0.777 0.537 1.754 0.782 2.929 0.734 1.182-0.051 2.601-0.457 4.259-1.219v0c1.695-0.779 2.953-1.604 3.774-2.473 0.82-0.87 1.28-1.774 1.379-2.714 0.105-0.942-0.07-1.908-0.524-2.896v0c-0.454-0.989-1.07-1.751-1.848-2.289-0.771-0.54-1.744-0.786-2.919-0.738-1.185 0.044-2.609 0.449-4.274 1.214v0c-1.708 0.785-2.968 1.614-3.778 2.487-0.814 0.867-1.274 1.771-1.379 2.714-0.099 0.94 0.079 1.904 0.534 2.892z" fill="#454545" data-fill-palette-color="secondary"></path><path d="M23.295 214.718l-1.052-1.632 14.834-9.565c0.325 0.339 0.656 0.7 0.992 1.081 0.327 0.379 0.661 0.79 1.004 1.233 0.337 0.446 0.673 0.93 1.009 1.45v0c1.28 1.985 1.872 3.697 1.775 5.136-0.097 1.439-0.912 2.652-2.445 3.641v0c-1.007 0.649-1.999 0.953-2.976 0.911-0.977-0.042-1.931-0.41-2.862-1.104-0.935-0.7-1.837-1.724-2.706-3.072v0c-0.269-0.417-0.497-0.79-0.685-1.119-0.188-0.329-0.377-0.674-0.569-1.035v0zM29.384 224.162l-1.214-1.884 3.661-9.893 1.192 1.849zM32.201 211.949v0c1.041 1.615 2.057 2.618 3.048 3.012 0.997 0.39 2.039 0.234 3.127-0.468v0c0.752-0.485 1.265-1.024 1.538-1.618 0.282-0.592 0.329-1.269 0.14-2.032-0.185-0.757-0.595-1.628-1.229-2.611v0c-0.328-0.509-0.636-0.942-0.923-1.298-0.281-0.36-0.581-0.711-0.901-1.054v0l-6.05 3.901c0.143 0.285 0.275 0.535 0.398 0.751 0.121 0.225 0.247 0.447 0.38 0.665 0.136 0.224 0.294 0.474 0.472 0.752z" fill="#454545" data-fill-palette-color="secondary"></path><path d="M40.122 236.985l-7.245-8.576 13.704-11.578 7.172 8.489-1.262 1.066-5.913-6.998-11.171 9.439 5.985 7.085zM45.681 230.585l-5.606-6.635 1.27-1.073 5.606 6.635z" fill="#454545" data-fill-palette-color="secondary"></path><path d="M46.693 243.505v0c-0.521-0.482-1.024-1.027-1.511-1.637-0.482-0.615-0.896-1.247-1.244-1.896v0l1.151-1.243c0.257 0.463 0.535 0.907 0.834 1.334 0.304 0.432 0.617 0.834 0.938 1.206 0.327 0.377 0.657 0.72 0.991 1.029v0c1.092 1.01 2.087 1.551 2.986 1.623 0.904 0.067 1.721-0.294 2.45-1.083v0c0.622-0.672 0.899-1.368 0.833-2.086-0.072-0.713-0.466-1.636-1.183-2.768v0l-0.544-0.841c-0.851-1.321-1.29-2.53-1.318-3.625-0.018-1.096 0.41-2.116 1.284-3.061v0c1.052-1.137 2.269-1.667 3.651-1.59 1.392 0.077 2.866 0.836 4.423 2.277v0c0.505 0.468 0.976 0.968 1.41 1.501 0.44 0.529 0.803 1.048 1.092 1.558v0l-1.151 1.244c-0.319-0.558-0.688-1.091-1.107-1.601-0.415-0.515-0.865-0.997-1.35-1.446v0c-0.753-0.697-1.456-1.174-2.11-1.431-0.649-0.262-1.25-0.326-1.805-0.193-0.56 0.139-1.066 0.453-1.52 0.944v0c-0.598 0.647-0.879 1.316-0.843 2.006 0.032 0.696 0.383 1.574 1.053 2.634v0l0.559 0.841c0.612 0.951 1.031 1.831 1.258 2.641 0.221 0.805 0.246 1.559 0.073 2.262-0.182 0.704-0.565 1.372-1.149 2.004v0c-0.739 0.799-1.547 1.303-2.427 1.512-0.883 0.215-1.809 0.146-2.778-0.206-0.974-0.357-1.956-0.993-2.946-1.909z" fill="#454545" data-fill-palette-color="secondary"></path><path d="M60.443 254.303l-1.589-1.152 9.525-13.149-4.843-3.508 0.999-1.38 11.276 8.168-1 1.38-4.843-3.508z" fill="#454545" data-fill-palette-color="secondary"></path><path d="M83.268 267.783v0c-1.116-0.539-2.054-1.171-2.812-1.895-0.756-0.732-1.297-1.574-1.625-2.527-0.325-0.959-0.406-2.05-0.245-3.272 0.168-1.219 0.615-2.582 1.342-4.089v0c0.942-1.953 2.009-3.396 3.201-4.327 1.185-0.934 2.474-1.421 3.869-1.459 1.395-0.038 2.876 0.321 4.445 1.078v0c0.626 0.302 1.205 0.631 1.737 0.987 0.532 0.356 1.039 0.746 1.522 1.17v0l-0.745 1.545c-0.481-0.446-0.987-0.839-1.518-1.18-0.528-0.347-1.087-0.662-1.676-0.946v0c-1.228-0.592-2.368-0.875-3.421-0.848-1.056 0.018-2.044 0.417-2.963 1.196-0.91 0.777-1.763 1.99-2.558 3.64v0c-0.823 1.705-1.249 3.159-1.278 4.36-0.035 1.198 0.265 2.207 0.901 3.027 0.631 0.816 1.529 1.506 2.695 2.068v0c0.595 0.287 1.198 0.52 1.807 0.7 0.606 0.17 1.279 0.304 2.02 0.401v0l-0.745 1.544c-0.629-0.074-1.276-0.207-1.942-0.397-0.665-0.191-1.335-0.449-2.011-0.776z" fill="#454545" data-fill-palette-color="secondary"></path><path d="M92.375 271.257l-1.867-0.606 11.665-15.073 2.642 0.859 0.584 19.054-1.905-0.62-0.459-18.035 0.314 0.102zM103.972 268.923l-8.467-2.752 0.956-1.437 7.583 2.464z" fill="#454545" data-fill-palette-color="secondary"></path><path d="M112.413 276.966l-1.909-0.354 3.218-17.355c0.47-0.004 0.959 0.003 1.467 0.02 0.5 0.023 1.029 0.061 1.586 0.115 0.556 0.061 1.139 0.148 1.747 0.262v0c2.322 0.431 3.973 1.174 4.954 2.231 0.98 1.057 1.304 2.483 0.972 4.277v0c-0.218 1.178-0.678 2.108-1.379 2.791-0.701 0.682-1.623 1.124-2.767 1.325-1.151 0.2-2.515 0.153-4.092-0.139v0c-0.487-0.09-0.915-0.18-1.284-0.27-0.369-0.089-0.749-0.188-1.142-0.296v0zM123.462 279.015l-2.204-0.408-4.687-9.452 2.163 0.402zM116.509 268.587v0c1.889 0.35 3.316 0.3 4.282-0.151 0.967-0.458 1.569-1.323 1.805-2.596v0c0.163-0.88 0.122-1.623-0.122-2.229-0.237-0.611-0.698-1.11-1.383-1.496-0.678-0.385-1.592-0.684-2.743-0.897v0c-0.596-0.11-1.121-0.183-1.577-0.219-0.454-0.042-0.916-0.065-1.385-0.068v0l-1.312 7.078c0.305 0.092 0.578 0.167 0.819 0.226 0.247 0.067 0.495 0.127 0.744 0.18 0.256 0.054 0.546 0.112 0.872 0.172z" fill="#454545" data-fill-palette-color="secondary"></path><path d="M140.158 280l-11.211-0.612 0.978-17.914 11.097 0.606-0.09 1.65-9.148-0.499-0.797 14.603 9.261 0.506zM139.315 271.565l-8.673-0.473 0.09-1.661 8.673 0.474z" fill="#454545" data-fill-palette-color="secondary"></path><path d="M161.431 278.352v0c-1.229 0.164-2.359 0.151-3.391-0.038-1.033-0.196-1.949-0.602-2.747-1.218-0.798-0.623-1.466-1.489-2.002-2.598-0.53-1.11-0.905-2.495-1.127-4.154v0c-0.286-2.15-0.188-3.941 0.295-5.374 0.476-1.432 1.286-2.547 2.431-3.345 1.144-0.798 2.579-1.313 4.306-1.543v0c0.689-0.092 1.354-0.135 1.993-0.13 0.64 0.005 1.278 0.052 1.916 0.141v0l0.226 1.7c-0.647-0.108-1.285-0.159-1.917-0.151-0.632 0.001-1.272 0.044-1.92 0.13v0c-1.351 0.18-2.459 0.571-3.324 1.172-0.872 0.595-1.478 1.472-1.817 2.628-0.333 1.149-0.379 2.631-0.138 4.447v0c0.25 1.877 0.693 3.325 1.329 4.345 0.629 1.021 1.435 1.698 2.417 2.033 0.975 0.335 2.105 0.418 3.388 0.247v0c0.655-0.087 1.287-0.223 1.894-0.409 0.6-0.191 1.236-0.449 1.908-0.775v0l0.227 1.7c-0.567 0.284-1.18 0.529-1.841 0.735-0.66 0.206-1.362 0.359-2.106 0.457z" fill="#454545" data-fill-palette-color="secondary"></path><path d="M176.834 274.9v0c-1.443 0.387-2.785 0.419-4.027 0.096-1.242-0.323-2.337-1.059-3.287-2.208-0.955-1.141-1.712-2.756-2.273-4.845v0c-0.558-2.082-0.711-3.859-0.457-5.331 0.249-1.464 0.832-2.651 1.75-3.56 0.913-0.901 2.088-1.544 3.525-1.929v0c1.436-0.385 2.775-0.417 4.017-0.094 1.243 0.329 2.342 1.065 3.297 2.206 0.95 1.15 1.704 2.765 2.263 4.847v0c0.56 2.088 0.716 3.864 0.467 5.328-0.254 1.472-0.837 2.659-1.751 3.56-0.92 0.903-2.095 1.546-3.524 1.93zM176.398 273.274v0c1.051-0.282 1.906-0.761 2.566-1.437 0.66-0.676 1.065-1.597 1.215-2.765 0.149-1.173-0.013-2.641-0.486-4.403v0c-0.483-1.802-1.085-3.181-1.805-4.136-0.72-0.955-1.534-1.56-2.443-1.814-0.911-0.262-1.893-0.252-2.944 0.03v0c-1.051 0.282-1.906 0.761-2.566 1.437-0.662 0.669-1.068 1.587-1.218 2.754-0.155 1.175 0.004 2.647 0.479 4.416v0c0.487 1.816 1.093 3.197 1.817 4.143 0.718 0.948 1.532 1.553 2.444 1.815 0.91 0.255 1.89 0.242 2.941-0.04z" fill="#454545" data-fill-palette-color="secondary"></path><path d="M191.61 269.623l-1.698 0.758-7.309-16.384 2.141-0.955 11.596 10.072-0.387 0.173 0.167-15.32 2.141-0.955 7.309 16.384-1.698 0.757-6.615-14.827 0.51-0.228-0.229 15.155-1.623 0.724-11.495-9.925 0.575-0.256z" fill="#454545" data-fill-palette-color="secondary"></path><path d="M213.357 258.435l-1.536 1.046-10.098-14.828 1.938-1.32 13.197 7.857-0.35 0.238-2.552-15.106 1.938-1.32 10.098 14.829-1.537 1.047-9.138-13.421 0.461-0.313 2.461 14.955-1.468 1-13.073-7.73 0.521-0.354z" fill="#454545" data-fill-palette-color="secondary"></path><path d="M236.261 240.637v0c-1.101 1.05-2.177 1.733-3.227 2.049-1.054 0.311-2.112 0.254-3.173-0.17-1.061-0.425-2.143-1.215-3.246-2.371v0l-7.698-8.073 1.42-1.354 7.848 8.229c1.221 1.281 2.386 1.954 3.495 2.019 1.114 0.07 2.251-0.448 3.412-1.555v0c1.176-1.121 1.755-2.24 1.738-3.356-0.018-1.106-0.637-2.299-1.858-3.58v0l-7.848-8.229 1.383-1.319 7.698 8.073c1.102 1.156 1.845 2.27 2.229 3.34 0.379 1.076 0.39 2.13 0.034 3.164-0.365 1.034-1.101 2.078-2.207 3.133z" fill="#454545" data-fill-palette-color="secondary"></path><path d="M246.496 229.062l-1.147 1.477-14.166-11.009 1.242-1.599 18.719 1.48-0.291 0.376-12.388-9.627 1.135-1.46 14.165 11.008-1.242 1.599-18.713-1.488 0.298-0.384z" fill="#454545" data-fill-palette-color="secondary"></path><path d="M258.369 212.285l-1.038 1.677-15.254-9.444 1.039-1.677z" fill="#454545" data-fill-palette-color="secondary"></path><path d="M264.172 200.839l-0.849 1.77-14.638-7.023-2.587 5.391-1.537-0.737 6.023-12.552 1.536 0.737-2.587 5.391z" fill="#454545" data-fill-palette-color="secondary"></path><path d="M270.399 185.031l-0.624 1.883-8.353-2.769 1.548 0.056-12.275 3.254 0.683-2.058 10.091-2.673-0.212 0.637-6.519-8.102 0.64-1.931 7.94 9.824-1.252-0.883z" fill="#454545" data-fill-palette-color="secondary"></path></g></svg></g></svg></g></svg></g></svg></g><defs></defs></svg><rect width="280" height="280" fill="none" stroke="none" visibility="hidden"></rect></g></svg></g></svg>